<svg width="20" height="23" viewBox="0 0 20 23" fill="none" xmlns="http://www.w3.org/2000/svg">
<mask id="mask0_1584_8053" style="mask-type:alpha" maskUnits="userSpaceOnUse" x="0" y="0" width="20" height="23">
<rect width="20" height="23" fill="#D9D9D9"/>
</mask>
<g mask="url(#mask0_1584_8053)">
<path d="M2.25694 21.9771C1.72799 21.9771 1.27518 21.8001 0.898507 21.4463C0.521833 21.0924 0.333496 20.6669 0.333496 20.17V7.52022C0.333496 7.02327 0.521833 6.59785 0.898507 6.24395C1.27518 5.89006 1.72799 5.71312 2.25694 5.71312H10.8403L8.91685 7.52022H2.25694V20.17H15.721V13.8903L17.6445 12.0832V20.17C17.6445 20.6669 17.4561 21.0924 17.0795 21.4463C16.7028 21.8001 16.25 21.9771 15.721 21.9771H2.25694ZM13.0042 6.23266L14.3746 7.49764L8.02726 13.4611V14.7487H9.37367L15.7451 8.76261L17.1155 10.0276L10.1911 16.5558H6.10382V12.7157L13.0042 6.23266ZM17.1155 10.0276L13.0042 6.23266L15.4085 3.97377C15.7932 3.61235 16.254 3.43164 16.7909 3.43164C17.3279 3.43164 17.7807 3.61235 18.1494 3.97377L19.4958 5.26134C19.8644 5.6077 20.0488 6.02936 20.0488 6.52631C20.0488 7.02327 19.8644 7.44493 19.4958 7.79129L17.1155 10.0276Z" fill="#575757"/>
</g>
</svg>
