<svg xmlns="http://www.w3.org/2000/svg" width="24" height="24">
    <defs>
        <filter id="uck0zkoita">
            <feFlood flood-color="#FFF" flood-opacity="1" result="floodOut"/>
            <feComposite in="floodOut" in2="SourceGraphic" operator="atop" result="compOut"/>
            <feBlend in="compOut" in2="SourceGraphic"/>
        </filter>
    </defs>
    <g filter="url(#uck0zkoita)">
        <path fill-rule="evenodd" d="M12 23.997H.952c-.517 0-.937-.42-.937-.938V11.995C.015 5.361 5.376-.006 12-.006s11.985 5.368 11.985 12.001c0 6.634-5.362 12.002-11.985 12.002zm0-22.128c-5.589 0-10.112 4.53-10.112 10.126v10.127H12c5.589 0 10.112-4.53 10.112-10.127S17.589 1.869 12 1.869zm1.493 10.375c-.897.703-.914 1.193-.914 2.043 0 .31-.163.67-.962.67-.67 0-.898-.245-.898-1.095 0-1.405.62-2.076 1.093-2.484.539-.458 1.453-.964 1.453-1.847 0-.751-.653-1.111-1.469-1.111-1.664 0-1.305 1.258-2.187 1.258-.44 0-.979-.294-.979-.931 0-.882 1.012-2.19 3.215-2.19 2.089 0 3.476 1.161 3.476 2.697s-1.387 2.647-1.828 2.99zm-1.86 3.84c.685 0 1.256.572 1.256 1.259 0 .67-.554 1.258-1.256 1.258s-1.24-.588-1.24-1.258c0-.687.555-1.259 1.24-1.259z"/>
    </g>
</svg>
