<svg xmlns="http://www.w3.org/2000/svg" width="24" height="24">
    <path fill="#626A7D" fill-rule="evenodd" d="M12.005 24.012H.941c-.518 0-.937-.419-.937-.937V12.011C.004 5.377 5.372.009 12.005.009c6.634 0 12.002 5.368 12.002 12.002s-5.369 12.001-12.002 12.001zm0-22.128c-5.597 0-10.126 4.53-10.126 10.127v10.126h10.126c5.598 0 10.127-4.53 10.127-10.126 0-5.598-4.53-10.127-10.127-10.127zm1.496 10.375c-.899.703-.916 1.193-.916 2.043 0 .311-.163.67-.964.67-.67 0-.899-.245-.899-1.095 0-1.405.622-2.075 1.095-2.484.54-.457 1.455-.964 1.455-1.846 0-.752-.654-1.112-1.471-1.112-1.667 0-1.307 1.259-2.19 1.259-.441 0-.98-.295-.98-.932 0-.882 1.013-2.19 3.219-2.19 2.092 0 3.481 1.161 3.481 2.697s-1.389 2.647-1.83 2.99zM11.638 16.1c.686 0 1.258.572 1.258 1.258 0 .67-.556 1.258-1.258 1.258-.703 0-1.242-.588-1.242-1.258 0-.686.555-1.258 1.242-1.258z"/>
</svg>
